<?xml version="1.0" encoding="utf-8"?>
<!-- Generator: Adobe Illustrator 21.0.2, SVG Export Plug-In . SVG Version: 6.00 Build 0)  -->
<svg version="1.1" id="Layer_1" xmlns="http://www.w3.org/2000/svg" xmlns:xlink="http://www.w3.org/1999/xlink" x="0px" y="0px"
	 viewBox="0 0 129.4 129.4" style="enable-background:new 0 0 129.4 129.4;" xml:space="preserve">
<style type="text/css">
	.st0{fill:#7CC144;}
	.st1{opacity:0.3;fill:#FFFFFF;enable-background:new    ;}
	.st2{opacity:0.4;fill:#FFFFFF;enable-background:new    ;}
	.st3{opacity:0.4;fill:url(#SVGID_1_);enable-background:new    ;}
	.st4{fill:#FFFFFF;stroke:#FFFFFF;stroke-width:0.24;stroke-linecap:round;stroke-linejoin:round;stroke-miterlimit:10;}
</style>
<g>
	<circle class="st0" cx="64.7" cy="64.7" r="64.7"/>
	<circle class="st1" cx="64.7" cy="64.7" r="48.2"/>
	<circle class="st2" cx="64.7" cy="64.7" r="31.6"/>
	
		<linearGradient id="SVGID_1_" gradientUnits="userSpaceOnUse" x1="60.8224" y1="556.6201" x2="102.1342" y2="485.0659" gradientTransform="matrix(1 0 0 -1 0 603.4)">
		<stop  offset="0" style="stop-color:#000000"/>
		<stop  offset="0.6121" style="stop-color:#000000;stop-opacity:0"/>
	</linearGradient>
	<path class="st3" d="M129.4,64.7c0-1.2,0-2.5-0.1-3.7L96.8,27.8l-8.2,3.4l-3.1,30l-6.5-5h-6.5L62,46.1l-12,29l-4.8-5.8l-14.9,29
		l30.8,30.9l0,0l0.1,0.1c0,0,2.2,0.2,6-0.1c7.1-0.3,13.8-1.7,20.2-4c2.6-0.9,5.2-1.9,8-3.1c2.9-1.3,6-3.6,9-6.4
		C119.6,104,129.4,85.5,129.4,64.7z"/>
	<g>
		<rect x="30.3" y="68.6" class="st4" width="14.3" height="28.5"/>
		<rect x="47.7" y="44.6" class="st4" width="14.3" height="52.6"/>
		<rect x="64.9" y="55.4" class="st4" width="14.3" height="41.8"/>
		<rect x="82" y="27.1" class="st4" width="14.3" height="70.1"/>
	</g>
</g>
</svg>
