<?xml version="1.0" encoding="utf-8"?>
<!-- Generator: Adobe Illustrator 21.0.2, SVG Export Plug-In . SVG Version: 6.00 Build 0)  -->
<svg version="1.1" id="Layer_1" xmlns="http://www.w3.org/2000/svg" xmlns:xlink="http://www.w3.org/1999/xlink" x="0px" y="0px"
	 viewBox="0 0 129.4 129.4" style="enable-background:new 0 0 129.4 129.4;" xml:space="preserve">
<style type="text/css">
	.st0{fill:#9373D5;}
	.st1{opacity:0.3;fill:#FFFFFF;enable-background:new    ;}
	.st2{opacity:0.4;fill:#FFFFFF;enable-background:new    ;}
	.st3{opacity:0.4;fill:url(#SVGID_1_);enable-background:new    ;}
	.st4{fill:#FFFFFF;}
</style>
<g>
	<circle class="st0" cx="64.7" cy="64.7" r="64.7"/>
	<circle class="st1" cx="64.7" cy="64.7" r="48.2"/>
	<circle class="st2" cx="64.7" cy="64.7" r="31.6"/>
	
		<linearGradient id="SVGID_1_" gradientUnits="userSpaceOnUse" x1="63.7703" y1="72.0459" x2="98.3507" y2="12.1508" gradientTransform="matrix(1 0 0 -1 0 132)">
		<stop  offset="0" style="stop-color:#000000"/>
		<stop  offset="0.6363" style="stop-color:#000000;stop-opacity:0"/>
	</linearGradient>
	<path class="st3" d="M123.6,91.3c1.7-3.8,3.1-7.8,4.1-12l-5.5-5.3c-5.7-5.9-15.8-16.4-16.6-16.4c0,0-0.1,0-0.3,0.1l-2.3-2.3
		L24.2,82.8l50,45.8c18.4-2.7,34.2-13.2,44.1-28C120.8,98.2,122.4,94.8,123.6,91.3z"/>
	<path class="st4" d="M18.7,69.6c0,9.8,7.9,17.7,17.7,17.7h0.4h55.8h0.3c9.6-0.2,17.3-8.1,17.3-17.7c0-8.2-5.6-15.2-13.2-17.2
		c-0.4-5.8-5.2-10.3-11.1-10.3c-1.4,0-2.7,0.3-3.9,0.7c-4.6-6-11.8-9.8-19.9-9.8c-11.7,0-21.5,8-24.4,18.8c-0.4,0-0.8,0-1.2,0
		C26.6,51.9,18.7,59.8,18.7,69.6z"/>
</g>
</svg>
