<?xml version="1.0" encoding="utf-8"?>
<!-- Generator: Adobe Illustrator 21.0.2, SVG Export Plug-In . SVG Version: 6.00 Build 0)  -->
<svg version="1.1" id="Layer_1" xmlns="http://www.w3.org/2000/svg" xmlns:xlink="http://www.w3.org/1999/xlink" x="0px" y="0px"
	 viewBox="0 0 129.4 129.4" style="enable-background:new 0 0 129.4 129.4;" xml:space="preserve">
<style type="text/css">
	.st0{fill:#E9885D;}
	.st1{opacity:0.3;fill:#FFFFFF;enable-background:new    ;}
	.st2{opacity:0.4;fill:#FFFFFF;enable-background:new    ;}
	.st3{opacity:0.6;fill:url(#SVGID_1_);enable-background:new    ;}
	.st4{fill:#FFFFFF;}
	.st5{fill:#FFFFFF;stroke:#FFFFFF;stroke-width:0.24;stroke-linecap:round;stroke-linejoin:round;stroke-miterlimit:10;}
</style>
<circle class="st0" cx="64.7" cy="64.7" r="64.7"/>
<circle class="st1" cx="64.7" cy="64.7" r="48.2"/>
<circle class="st2" cx="64.7" cy="64.7" r="31.6"/>
<linearGradient id="SVGID_1_" gradientUnits="userSpaceOnUse" x1="44.4306" y1="552.2906" x2="107.2403" y2="499.587" gradientTransform="matrix(1 0 0 -1 0 603.4)">
	<stop  offset="0" style="stop-color:#000000"/>
	<stop  offset="0.5608" style="stop-color:#000000;stop-opacity:0"/>
</linearGradient>
<polygon class="st3" points="94.4,43.5 128.9,78 78.1,128.9 24.3,75.1 64.4,41.8 86.7,58.8 84.1,44.9 "/>
<g>
	<rect x="19.6" y="53.2" transform="matrix(0.7071 -0.7071 0.7071 0.7071 -27.4614 51.662)" class="st4" width="58" height="11.5"/>
	<rect x="19.6" y="53.2" transform="matrix(0.7071 -0.7071 0.7071 0.7071 -27.4614 51.662)" class="st4" width="58" height="11.5"/>
	
		<rect x="75.8" y="29.9" transform="matrix(0.7071 -0.7071 0.7071 0.7071 -17.7754 74.9051)" class="st4" width="11.5" height="58"/>
</g>
<rect x="82.6" y="43.2" class="st5" width="11.5" height="20.4"/>
<circle class="st5" cx="88.4" cy="29.5" r="5.8"/>
</svg>
