<?xml version="1.0" encoding="utf-8"?>
<!-- Generator: Adobe Illustrator 21.0.2, SVG Export Plug-In . SVG Version: 6.00 Build 0)  -->
<svg version="1.1" id="Layer_1" xmlns="http://www.w3.org/2000/svg" xmlns:xlink="http://www.w3.org/1999/xlink" x="0px" y="0px"
	 viewBox="0 0 129.4 129.4" style="enable-background:new 0 0 129.4 129.4;" xml:space="preserve">
<style type="text/css">
	.st0{fill:#6F9DCE;}
	.st1{opacity:0.3;fill:#FFFFFF;enable-background:new    ;}
	.st2{opacity:0.4;fill:#FFFFFF;enable-background:new    ;}
	.st3{opacity:0.4;fill:url(#SVGID_1_);enable-background:new    ;}
	.st4{fill:#FFFFFF;stroke:#FFFFFF;stroke-width:0.24;stroke-linecap:round;stroke-linejoin:round;stroke-miterlimit:10;}
</style>
<g>
	<circle class="st0" cx="64.7" cy="64.7" r="64.7"/>
	<circle class="st1" cx="64.7" cy="64.7" r="48.2"/>
	<circle class="st2" cx="64.7" cy="64.7" r="31.6"/>
	
		<linearGradient id="SVGID_1_" gradientUnits="userSpaceOnUse" x1="62.4749" y1="86.8548" x2="103.9416" y2="15.0324" gradientTransform="matrix(1 0 0 -1 0 131.8)">
		<stop  offset="0" style="stop-color:#000000"/>
		<stop  offset="0.6942" style="stop-color:#000000;stop-opacity:0"/>
	</linearGradient>
	<path class="st3" d="M123,60.6L123,60.6l-18.5-17.2l0,0l0,0l-15.1-14l-5.2,53l-43.8,18.5l13.1,11.8L71,129.1
		c32.2-3.1,57.4-29.8,58.3-62.6L123,60.6z"/>
	<path class="st4" d="M42.6,28.3c-1.7,0-3,1.4-3,3v67.4c0,1.7,1.4,3,3,3H87c1.7,0,3-1.4,3-3V31.4c0-1.7-1.4-3-3-3H42.6V28.3z
		 M50.2,38.2h29.1c1.1,0,2,0.9,2,2v38.7c0,1.1-0.9,2-2,2H50.2c-1.1,0-2-0.9-2-2V40.1C48.3,39.1,49.1,38.2,50.2,38.2z"/>
</g>
</svg>
