<?xml version="1.0" encoding="utf-8"?>
<!-- Generator: Adobe Illustrator 21.0.2, SVG Export Plug-In . SVG Version: 6.00 Build 0)  -->
<svg version="1.1" id="Layer_1" xmlns="http://www.w3.org/2000/svg" xmlns:xlink="http://www.w3.org/1999/xlink" x="0px" y="0px"
	 viewBox="0 0 129.4 129.4" style="enable-background:new 0 0 129.4 129.4;" xml:space="preserve">
<style type="text/css">
	.st0{fill:#49C1A8;}
	.st1{opacity:0.3;fill:#FFFFFF;enable-background:new    ;}
	.st2{opacity:0.4;fill:#FFFFFF;enable-background:new    ;}
	.st3{opacity:0.6;fill:url(#SVGID_1_);enable-background:new    ;}
	.st4{fill:#FFFFFF;stroke:#FFFFFF;stroke-width:0.24;stroke-linecap:round;stroke-linejoin:round;stroke-miterlimit:10;}
</style>
<circle class="st0" cx="64.7" cy="64.7" r="64.7"/>
<circle class="st1" cx="64.7" cy="64.7" r="48.2"/>
<circle class="st2" cx="64.7" cy="64.7" r="31.6"/>
<linearGradient id="SVGID_1_" gradientUnits="userSpaceOnUse" x1="61.6843" y1="87.416" x2="108.0249" y2="7.1517" gradientTransform="matrix(1 0 0 -1 0 132)">
	<stop  offset="0" style="stop-color:#000000"/>
	<stop  offset="0.5781" style="stop-color:#000000;stop-opacity:0"/>
</linearGradient>
<polygon class="st3" points="84,31.7 136.2,83.9 125,111.2 101.7,128.5 78.6,132.6 35.8,89.5 73.7,53 69.6,42 "/>
<g>
	<path class="st4" d="M63.4,48c0,9.3,7.5,16.8,16.8,16.8S97,57.3,97,48c0-1.8-0.3-3.5-0.8-5.1L84.5,54.7L72.8,42.8l11.3-11.2
		c-1.2-0.3-2.5-0.4-3.9-0.4C70.9,31.2,63.4,38.7,63.4,48z"/>
	<path class="st4" d="M72,47.8L35.8,84l0.1,0.1c-0.6,0.9-1,2.1-1,3.3c0,3.2,2.6,5.8,5.8,5.8c1.2,0,2.4-0.4,3.3-1l0.1,0.1l0.4-0.4
		c0.2-0.2,0.4-0.4,0.6-0.6l35.2-35.2L72,47.8z"/>
</g>
</svg>
