<?xml version="1.0" encoding="UTF-8" ?>
<!DOCTYPE svg PUBLIC "-//W3C//DTD SVG 1.1//EN" "http://www.w3.org/Graphics/SVG/1.1/DTD/svg11.dtd">
<svg width="1000pt" height="1000pt" viewBox="0 0 1000 1000" version="1.1" xmlns="http://www.w3.org/2000/svg">
<path fill="#f47320" d=" M 0.00 0.00 L 1000.00 0.00 L 1000.00 1000.00 L 0.00 1000.00 L 0.00 0.00 Z" />
<path fill="#fffefe" d=" M 475.10 310.29 C 515.40 304.74 556.66 307.72 596.06 317.67 C 612.50 321.88 628.55 328.51 642.09 338.88 C 656.83 350.10 668.02 365.89 673.58 383.57 C 674.98 388.24 677.91 392.25 681.38 395.60 C 691.38 405.34 700.72 415.81 708.76 427.24 C 732.84 460.97 743.69 502.85 743.51 543.98 C 743.36 555.17 746.16 566.83 753.46 575.56 C 757.40 580.64 762.60 584.51 767.88 588.11 C 780.50 597.01 792.73 606.46 804.53 616.43 C 807.76 619.20 811.25 621.73 814.01 625.00 C 817.17 628.71 818.97 633.32 821.96 637.14 C 823.61 639.15 822.28 642.02 820.83 643.74 C 817.69 646.91 813.68 649.13 809.51 650.65 C 804.25 652.77 798.45 650.88 793.02 652.13 C 789.39 651.40 785.68 651.87 782.01 651.71 C 608.98 651.70 435.96 651.72 262.93 651.70 C 258.13 651.82 253.50 650.39 248.81 649.61 C 239.53 647.64 229.81 646.44 221.38 641.77 C 217.52 639.70 214.42 635.43 215.45 630.87 C 216.80 624.19 221.44 618.84 225.57 613.66 C 231.81 607.04 236.48 598.86 238.61 589.99 C 239.92 585.11 239.31 580.00 239.22 575.02 C 238.39 566.39 238.36 557.67 239.13 549.03 C 240.75 505.99 255.32 464.11 277.49 427.42 C 287.49 411.19 298.43 395.40 311.54 381.51 C 322.70 369.52 337.15 361.47 351.17 353.35 C 389.36 331.57 431.38 315.91 475.10 310.29 Z" />
</svg>
