<?xml version="1.0" encoding="utf-8"?>
<!-- Generator: Adobe Illustrator 19.2.1, SVG Export Plug-In . SVG Version: 6.00 Build 0)  -->
<svg version="1.1" id="Layer_1" xmlns="http://www.w3.org/2000/svg" xmlns:xlink="http://www.w3.org/1999/xlink" x="0px" y="0px"
	 viewBox="0 0 111.3 111.9" style="enable-background:new 0 0 111.3 111.9;" xml:space="preserve">
<style type="text/css">
	.st0{fill:none;stroke:#79797A;stroke-width:3;stroke-linecap:round;stroke-linejoin:round;stroke-miterlimit:10;}
</style>
<g id="XMLID_60_">
	<g id="XMLID_75_">
		<g id="XMLID_76_">
			<line id="XMLID_78_" class="st0" x1="35.2" y1="38.9" x2="52.3" y2="21.8"/>
			<path id="XMLID_77_" class="st0" d="M90.8,78.3C90,32.9,35.2,38.9,35.2,38.9L52.3,56"/>
		</g>
	</g>
	<g id="XMLID_68_">
		<line id="XMLID_74_" class="st0" x1="91.3" y1="92.8" x2="85.2" y2="92.8"/>
		<line id="XMLID_73_" class="st0" x1="52.3" y1="92.8" x2="46.2" y2="92.8"/>
		<line id="XMLID_72_" class="st0" x1="78.3" y1="92.8" x2="72.2" y2="92.8"/>
		<line id="XMLID_71_" class="st0" x1="39.3" y1="92.8" x2="33.2" y2="92.8"/>
		<line id="XMLID_70_" class="st0" x1="65.3" y1="92.8" x2="59.2" y2="92.8"/>
		<line id="XMLID_69_" class="st0" x1="26.3" y1="92.8" x2="20.2" y2="92.8"/>
	</g>
	<g id="XMLID_61_">
		<line id="XMLID_67_" class="st0" x1="20.6" y1="23" x2="20.6" y2="29.1"/>
		<line id="XMLID_66_" class="st0" x1="20.6" y1="62" x2="20.6" y2="68"/>
		<line id="XMLID_65_" class="st0" x1="20.6" y1="36" x2="20.6" y2="42.1"/>
		<line id="XMLID_64_" class="st0" x1="20.6" y1="75" x2="20.6" y2="81"/>
		<line id="XMLID_63_" class="st0" x1="20.6" y1="49" x2="20.6" y2="55.1"/>
		<line id="XMLID_62_" class="st0" x1="20.6" y1="88" x2="20.6" y2="94"/>
	</g>
</g>
</svg>
