<?xml version="1.0" encoding="utf-8"?>
<!-- Generator: Adobe Illustrator 19.2.1, SVG Export Plug-In . SVG Version: 6.00 Build 0)  -->
<svg version="1.1" id="Layer_1" xmlns="http://www.w3.org/2000/svg" xmlns:xlink="http://www.w3.org/1999/xlink" x="0px" y="0px"
	 viewBox="0 0 111.3 111.9" style="enable-background:new 0 0 111.3 111.9;" xml:space="preserve">
<style type="text/css">
	.st0{fill:none;stroke:#79797A;stroke-width:3;stroke-linecap:round;stroke-linejoin:round;stroke-miterlimit:10;}
</style>
<g id="XMLID_53_">
	<line id="XMLID_59_" class="st0" x1="20.1" y1="91.8" x2="26.2" y2="91.8"/>
	<line id="XMLID_58_" class="st0" x1="59.1" y1="91.8" x2="65.2" y2="91.8"/>
	<line id="XMLID_57_" class="st0" x1="33.1" y1="91.8" x2="39.2" y2="91.8"/>
	<line id="XMLID_56_" class="st0" x1="72.1" y1="91.8" x2="78.2" y2="91.8"/>
	<line id="XMLID_55_" class="st0" x1="46.1" y1="91.8" x2="52.2" y2="91.8"/>
	<line id="XMLID_54_" class="st0" x1="85.1" y1="91.8" x2="91.2" y2="91.8"/>
</g>
<g id="XMLID_41_">
	<g id="XMLID_49_">
		<g id="XMLID_50_">
			<line id="XMLID_52_" class="st0" x1="76.2" y1="37.9" x2="59.1" y2="20.8"/>
			<path id="XMLID_51_" class="st0" d="M20.6,77.3c0.9-45.4,55.6-39.4,55.6-39.4L59.1,55.1"/>
		</g>
	</g>
	<g id="XMLID_42_">
		<line id="XMLID_48_" class="st0" x1="90.8" y1="22" x2="90.8" y2="28.1"/>
		<line id="XMLID_47_" class="st0" x1="90.8" y1="61" x2="90.8" y2="67"/>
		<line id="XMLID_46_" class="st0" x1="90.8" y1="35" x2="90.8" y2="41"/>
		<line id="XMLID_45_" class="st0" x1="90.8" y1="74" x2="90.8" y2="80"/>
		<line id="XMLID_44_" class="st0" x1="90.8" y1="48" x2="90.8" y2="54"/>
		<line id="XMLID_43_" class="st0" x1="90.8" y1="87" x2="90.8" y2="93"/>
	</g>
</g>
</svg>
