<?xml version="1.0" encoding="utf-8"?>
<!-- Generator: Adobe Illustrator 19.2.1, SVG Export Plug-In . SVG Version: 6.00 Build 0)  -->
<svg version="1.1" id="Layer_1" xmlns="http://www.w3.org/2000/svg" xmlns:xlink="http://www.w3.org/1999/xlink" x="0px" y="0px"
	 viewBox="0 0 111.3 111.9" style="enable-background:new 0 0 111.3 111.9;" xml:space="preserve">
<style type="text/css">
	.st0{fill:none;stroke:#8C8C8C;stroke-width:3;stroke-linecap:round;stroke-linejoin:round;stroke-miterlimit:10;}
</style>
<g id="XMLID_41_">
	<path id="XMLID_49_" class="st0" d="M31.8,38.5H83c1.9,0,3.5,2,3.5,4.5v35.6c0,2.5-1.6,4.4-3.5,4.4H31.8c-1.9,0-3.5-2-3.5-4.4V43
		C28.4,40.5,29.9,38.5,31.8,38.5z"/>
	<line id="XMLID_48_" class="st0" x1="40.3" y1="36.8" x2="40.3" y2="26.5"/>
	<line id="XMLID_47_" class="st0" x1="57.5" y1="36.8" x2="57.5" y2="26.5"/>
	<line id="XMLID_46_" class="st0" x1="74.6" y1="36.8" x2="74.6" y2="26.5"/>
	<line id="XMLID_45_" class="st0" x1="43.8" y1="50.5" x2="72.4" y2="50.5"/>
	<line id="XMLID_44_" class="st0" x1="43.8" y1="57.3" x2="72.4" y2="57.3"/>
	<line id="XMLID_43_" class="st0" x1="43.8" y1="64.2" x2="72.4" y2="64.2"/>
	<line id="XMLID_42_" class="st0" x1="43.8" y1="71" x2="72.4" y2="71"/>
</g>
</svg>
