<?xml version="1.0" encoding="utf-8"?>
<!-- Generator: Adobe Illustrator 19.2.1, SVG Export Plug-In . SVG Version: 6.00 Build 0)  -->
<svg version="1.1" id="Layer_1" xmlns="http://www.w3.org/2000/svg" xmlns:xlink="http://www.w3.org/1999/xlink" x="0px" y="0px"
	 viewBox="0 0 111.3 111.9" style="enable-background:new 0 0 111.3 111.9;" xml:space="preserve">
<style type="text/css">
	.st0{fill:none;stroke:#8C8C8D;stroke-width:3;stroke-linecap:round;stroke-linejoin:round;stroke-miterlimit:10;}
</style>
<path id="XMLID_41_" class="st0" d="M28.6,69.7c-2.8,2.7-2.8,7,0,9.6c2.8,2.7,7.3,2.7,10.1,0l21.9-20.7c0.5-0.5,1-1.1,1.3-1.7
	c6,2.3,13.1,1.1,18-3.5c3.9-3.7,5.5-8.8,4.6-13.6l-7.7,7.3l-11.7-2.3l-2.5-11.2l7.4-7c-4.9-0.5-9.9,1-13.7,4.5
	c-4.7,4.5-6,11-3.9,16.5c-0.7,0.3-1.4,0.8-2,1.3L28.6,69.7z"/>
</svg>
