<?xml version="1.0" encoding="utf-8"?>
<!-- Generator: Adobe Illustrator 19.2.1, SVG Export Plug-In . SVG Version: 6.00 Build 0)  -->
<svg version="1.1" id="history_x5F_new.fw-Page_x25_201"
	 xmlns="http://www.w3.org/2000/svg" xmlns:xlink="http://www.w3.org/1999/xlink" x="0px" y="0px" viewBox="0 0 24 24"
	 style="enable-background:new 0 0 24 24;" xml:space="preserve">
<style type="text/css">
	.st0{fill:none;stroke:#7C7C7C;stroke-miterlimit:10;}
	.st1{fill:none;stroke:#7C7C7C;stroke-width:0.7;}
	.st2{fill:none;stroke:#7C7C7C;stroke-width:0.7;stroke-linecap:round;stroke-linejoin:round;stroke-miterlimit:10;}
</style>
<path class="st0" d="M6.5,11.1L6.5,11.1L6.5,11.1L6.5,11.1z"/>
<path class="st0" d="M6.5,11.1L6.5,11.1L6.5,11.1L6.5,11.1z"/>
<g id="Layer_x25_201">
	<g>
		<path class="st1" d="M19.3,6.4"/>
		<path class="st1" d="M20,7"/>
		<path class="st1" d="M12.1,11.8"/>
	</g>
</g>
<path id="XMLID_11_" class="st2" d="M7.6,6.5h12.9c0.5,0,0.9,0.5,0.9,1.1l-3.4,9c-0.2,0.6-1,1-1.4,1h-13c-0.5,0-0.9-0.5-0.9-1.1
	l3.6-9.1C6.3,6.7,6.8,6.5,7.6,6.5z"/>
<g>
	<line id="XMLID_10_" class="st2" x1="9.4" y1="9.4" x2="16.5" y2="9.4"/>
	<line id="XMLID_9_" class="st2" x1="8.8" y1="11.1" x2="15.9" y2="11.1"/>
	<line id="XMLID_8_" class="st2" x1="8.1" y1="12.9" x2="15.2" y2="12.9"/>
	<line id="XMLID_1_" class="st2" x1="7.5" y1="14.6" x2="14.6" y2="14.6"/>
</g>
</svg>
