<?xml version="1.0" encoding="utf-8"?>
<!-- Generator: Adobe Illustrator 19.2.1, SVG Export Plug-In . SVG Version: 6.00 Build 0)  -->
<svg version="1.1" id="history_x5F_new.fw-Page_x25_201"
	 xmlns="http://www.w3.org/2000/svg" xmlns:xlink="http://www.w3.org/1999/xlink" x="0px" y="0px" viewBox="0 0 24 24"
	 style="enable-background:new 0 0 24 24;" xml:space="preserve">
<style type="text/css">
	.st0{fill:none;stroke:#7C7C7C;stroke-width:0.7;}
	.st1{fill:none;}
	.st2{fill:#797979;}
</style>
<path id="Ellipse" class="st0" d="M3.5,12c0-4.7,3.8-8.5,8.5-8.5s8.5,3.8,8.5,8.5s-3.8,8.5-8.5,8.5S3.5,16.7,3.5,12z"/>
<path class="st1" d="M6.5,11.1L6.5,11.1L6.5,11.1L6.5,11.1z"/>
<path class="st1" d="M6.5,11.1L6.5,11.1L6.5,11.1L6.5,11.1z"/>
<g id="Layer_x25_201">
	<g>
		<path class="st0" d="M19.3,6.4"/>
		<path class="st0" d="M20,7"/>
		<path class="st0" d="M12.1,11.8"/>
	</g>
</g>
<g>
	<path class="st2" d="M9.6,7.7c0.5-0.5,1.3-1,2.4-1c1.4,0,2.5,0.8,2.5,2.2c0,2.2-2.3,2.5-2.4,3.5L12,13.6h-0.5l0-1.2v0
		c0-1.2,2.3-1.4,2.3-3.4c0-1-0.9-1.7-1.9-1.7c-1.3,0-1.9,0.8-2,0.8c-0.1,0-0.1,0-0.2-0.1L9.6,7.7z M11.7,15.9c0.4,0,0.7,0.3,0.7,0.7
		c0,0.4-0.3,0.7-0.7,0.7c-0.4,0-0.7-0.3-0.7-0.7S11.3,15.9,11.7,15.9z"/>
</g>
</svg>
