<?xml version="1.0" encoding="utf-8"?>
<!-- Generator: Adobe Illustrator 19.2.1, SVG Export Plug-In . SVG Version: 6.00 Build 0)  -->
<svg version="1.1" id="history_x5F_new.fw-Page_x25_201"
	 xmlns="http://www.w3.org/2000/svg" xmlns:xlink="http://www.w3.org/1999/xlink" x="0px" y="0px" viewBox="0 0 24 24"
	 style="enable-background:new 0 0 24 24;" xml:space="preserve">
<style type="text/css">
	.st0{fill:none;stroke:#7C7C7C;stroke-miterlimit:10;}
	.st1{fill:none;stroke:#7C7C7C;stroke-width:0.7;stroke-linecap:round;stroke-linejoin:round;stroke-miterlimit:10;}
	.st2{fill:none;stroke:#7C7C7C;stroke-width:0.5;stroke-miterlimit:10;}
</style>
<path class="st0" d="M12,12L12,12L12,12L12,12z"/>
<path class="st0" d="M12,12L12,12L12,12L12,12z"/>
<path class="st1" d="M4.5,5.4h14.9c0.6,0,1,0.5,1,1v11.2c0,0.6-0.5,1-1,1H4.5c-0.6,0-1-0.5-1-1V6.4C3.5,5.8,4,5.4,4.5,5.4z"/>
<line class="st1" x1="15.7" y1="9.1" x2="18.6" y2="9.1"/>
<line class="st1" x1="15.7" y1="10.5" x2="18.6" y2="10.5"/>
<line class="st1" x1="15.7" y1="12" x2="18.6" y2="12"/>
<line class="st1" x1="15.7" y1="13.5" x2="18.6" y2="13.5"/>
<path class="st2" d="M11.4,12.1l-0.9-0.4l-0.4-0.5c0.4-0.6,0.6-1.4,0.6-2.2c0-1.2-0.7-2-1.7-2s-1.7,0.8-1.7,2c0,0.8,0.2,1.6,0.6,2.2
	l0,0l-0.4,0.5l-0.9,0.4c-0.2,0.1-1.7,0.6-1.7,3.4c0,0.1,0.1,0.2,0.2,0.2c0,0,0.8,0,1.2,0v0.1c0,0.1,0.1,0.2,0.2,0.2h5.2
	c0.1,0,0.2-0.1,0.2-0.2v-0.1c0.4,0,1.2,0,1.2,0c0.1,0,0.2-0.1,0.2-0.2C13.2,12.7,11.6,12.1,11.4,12.1z"/>
</svg>
