<?xml version="1.0" encoding="utf-8"?>
<!-- Generator: Adobe Illustrator 19.2.1, SVG Export Plug-In . SVG Version: 6.00 Build 0)  -->
<svg version="1.1" id="history_x5F_new.fw-Page_x25_201"
	 xmlns="http://www.w3.org/2000/svg" xmlns:xlink="http://www.w3.org/1999/xlink" x="0px" y="0px" viewBox="0 0 24 24"
	 style="enable-background:new 0 0 24 24;" xml:space="preserve">
<style type="text/css">
	.st0{fill:none;stroke:#7C7C7C;stroke-width:0.7;stroke-linecap:round;stroke-linejoin:round;stroke-miterlimit:10;}
</style>
<g>
	<g>
		<path class="st0" d="M4,4.3h13.1c0.5,0,0.9,0.5,0.9,1.1v9c0,0.7-0.4,1.1-0.9,1.1H4c-0.5,0-0.9-0.5-0.9-1.1V5.4
			C3.1,4.8,3.5,4.3,4,4.3z"/>
		<line class="st0" x1="3.6" y1="5.2" x2="10.5" y2="11.3"/>
		<line class="st0" x1="17.5" y1="5.2" x2="10.5" y2="11.3"/>
	</g>
	<path class="st0" d="M20,8.2c0.5,0,0.9,0.5,0.9,1.1v9.1c0,0.7-0.4,1.1-0.9,1.1H6.9c-0.5,0-0.9-0.5-0.9-1.1"/>
	<line class="st0" x1="6" y1="18.5" x2="6" y2="16.9"/>
	<line class="st0" x1="20" y1="8.2" x2="18.9" y2="8.2"/>
</g>
</svg>
