<?xml version="1.0" encoding="utf-8"?>
<!-- Generator: Adobe Illustrator 19.2.1, SVG Export Plug-In . SVG Version: 6.00 Build 0)  -->
<svg version="1.1" id="history_x5F_new.fw-Page_x25_201"
	 xmlns="http://www.w3.org/2000/svg" xmlns:xlink="http://www.w3.org/1999/xlink" x="0px" y="0px" viewBox="0 0 24 24"
	 style="enable-background:new 0 0 24 24;" xml:space="preserve">
<style type="text/css">
	.st0{fill:none;stroke:#7C7C7C;stroke-miterlimit:10;}
	.st1{fill:none;stroke:#7C7C7C;stroke-width:0.7;stroke-linecap:round;stroke-linejoin:round;stroke-miterlimit:10;}
</style>
<path class="st0" d="M12,12L12,12L12,12L12,12z"/>
<path class="st0" d="M12,12L12,12L12,12L12,12z"/>
<path id="XMLID_41_" class="st1" d="M3.9,16.7c-0.8,0.8-0.8,2.1,0,2.9c0.8,0.8,2.2,0.8,3,0l6.6-6.2c0.2-0.2,0.3-0.3,0.4-0.5
	c1.8,0.7,3.9,0.3,5.4-1.1c1.2-1.1,1.7-2.6,1.4-4.1l-2.3,2.2l-3.5-0.7l-0.8-3.4l2.2-2.1c-1.5-0.2-3,0.3-4.1,1.4
	c-1.4,1.4-1.8,3.3-1.2,5c-0.2,0.1-0.4,0.2-0.6,0.4L3.9,16.7z"/>
</svg>
