<?xml version="1.0" encoding="utf-8"?>
<!-- Generator: Adobe Illustrator 19.2.1, SVG Export Plug-In . SVG Version: 6.00 Build 0)  -->
<svg version="1.1" id="Layer_1" xmlns="http://www.w3.org/2000/svg" xmlns:xlink="http://www.w3.org/1999/xlink" x="0px" y="0px"
	 viewBox="0 0 111.3 111.9" style="enable-background:new 0 0 111.3 111.9;" xml:space="preserve">
<style type="text/css">
	.st0{fill:none;stroke:#EE736B;stroke-width:3;stroke-linecap:round;stroke-linejoin:round;stroke-miterlimit:10;}
	.st1{fill:none;stroke:#EE746C;stroke-width:3;stroke-linecap:round;stroke-linejoin:round;stroke-miterlimit:10;}
</style>
<g id="XMLID_2_">
	<path id="XMLID_4_" class="st0" d="M26.5,17.7h60.3c4.2,0,7.5,3.4,7.5,7.5v60.3c0,4.2-3.4,7.5-7.5,7.5H26.5c-4.2,0-7.5-3.4-7.5-7.5
		V25.2C19,21.1,22.3,17.7,26.5,17.7z"/>
	<path id="XMLID_3_" class="st1" d="M54.2,34.9c0,0-10.1,3.8,5.8,20.7c15,15.9,17.2,6.6,17.2,6.6s0.8-8-23.5,1.1
		S37.3,75.2,37.3,75.2s4.8,6.2,14.8-17.8C62.1,33.3,54.2,34.9,54.2,34.9z"/>
</g>
</svg>
