<?xml version="1.0" encoding="utf-8"?>
<!-- Generator: Adobe Illustrator 19.2.1, SVG Export Plug-In . SVG Version: 6.00 Build 0)  -->
<svg version="1.1" id="history_x5F_new.fw-Page_x25_201"
	 xmlns="http://www.w3.org/2000/svg" xmlns:xlink="http://www.w3.org/1999/xlink" x="0px" y="0px" viewBox="0 0 24 24"
	 style="enable-background:new 0 0 24 24;" xml:space="preserve">
<style type="text/css">
	.st0{fill:none;}
	.st1{fill:#7C7C7C;}
	.st2{fill:none;stroke:#7C7C7C;stroke-width:0.6;stroke-miterlimit:10;}
	.st3{fill:none;stroke:#7C7C7C;stroke-width:0.7;stroke-miterlimit:10;}
</style>
<path class="st0" d="M6.6,11.1L6.6,11.1L6.6,11.1L6.6,11.1z"/>
<path class="st0" d="M6.6,11.1L6.6,11.1L6.6,11.1L6.6,11.1z"/>
<circle class="st1" cx="6" cy="9.5" r="0.6"/>
<line class="st2" x1="5.8" y1="12.7" x2="18.2" y2="12.7"/>
<path class="st1" d="M19.5,16.8h-3.8v-3.9H8.4v3.9H4.5c-0.8,0-1.5-0.7-1.5-1.5V8.6c0-0.8,0.7-1.5,1.5-1.5h15c0.8,0,1.4,0.7,1.4,1.5
	v6.8C20.9,16.2,20.3,16.8,19.5,16.8z M16.3,16.2h3.2c0.4,0,0.8-0.3,0.8-0.8V8.6c0-0.4-0.3-0.8-0.8-0.8h-15c-0.4,0-0.8,0.3-0.8,0.8
	v6.8c0,0.4,0.3,0.8,0.8,0.8h3.1v-3.7h8.7V16.2z"/>
<path class="st1" d="M16.3,21.1H7.6v-8.7h8.7V21.1z M8.4,20.5h7.3V13H8.4V20.5z"/>
<rect x="7.9" y="3.4" class="st3" width="8.3" height="4"/>
<line class="st3" x1="15.3" y1="9.5" x2="18.4" y2="9.5"/>
</svg>
