<?xml version="1.0" encoding="utf-8"?>
<!-- Generator: Adobe Illustrator 19.2.1, SVG Export Plug-In . SVG Version: 6.00 Build 0)  -->
<svg version="1.1" id="Layer_1" xmlns="http://www.w3.org/2000/svg" xmlns:xlink="http://www.w3.org/1999/xlink" x="0px" y="0px"
	 viewBox="0 0 111.3 111.9" style="enable-background:new 0 0 111.3 111.9;" xml:space="preserve">
<style type="text/css">
	.st0{fill:none;stroke:#7C7C7C;stroke-width:3;stroke-linecap:round;stroke-linejoin:round;stroke-miterlimit:10;}
</style>
<path class="st0" d="M27,32c-3.1,0-5.7,2.5-5.7,5.7v26.4c0,3.1,2.5,5.6,5.7,5.6h8V52.3c0-1.7,2.8-3.1,6.2-3.1H70
	c3.4,0,6.2,1.4,6.2,3.1v17.4h8.1c3.1,0,5.6-2.5,5.6-5.6V37.6c0-3.1-2.5-5.7-5.6-5.7H27V32z"/>
<path class="st0" d="M76.3,52.2v31.5c0,1.7-2.8,3.1-6.2,3.1H41.3c-3.4,0-6.2-1.4-6.2-3.1V52.2c0-1.7,2.8-3.1,6.2-3.1h28.8
	C73.4,49.1,76.3,50.5,76.3,52.2z"/>
<rect x="33.3" y="25.1" class="st0" width="41.1" height="6.8"/>
</svg>
