<?xml version="1.0" standalone="no"?>
<!-- Generator: Adobe Fireworks 10, Export SVG Extension by Aaron Beall (http://fireworks.abeall.com) . Version: 0.6.1  -->
<!DOCTYPE svg PUBLIC "-//W3C//DTD SVG 1.1//EN" "http://www.w3.org/Graphics/SVG/1.1/DTD/svg11.dtd">
<svg id="print_new.fw-Page%201" viewBox="0 0 24 24" version="1.1"
	xmlns="http://www.w3.org/2000/svg" xmlns:xlink="http://www.w3.org/1999/xlink" xml:space="preserve"
	x="0px" y="0px" width="24px" height="24px"
>
	<g id="Layer%201">
		<path d="M 3.65 5 C 2.7387 5 2 5.7387 2 6.65 L 2 14.35 C 2 15.2613 2.7387 16 3.65 16 L 7 16 L 7 10.9075 C 7 10.4063 6.8059 11 7.8 11 L 16.2 11 C 17.1941 11 17 10.4063 17 10.9075 L 17 16 L 20.35 16 C 21.2613 16 22 15.2613 22 14.35 L 22 6.65 C 22 5.7387 21.2613 5 20.35 5 L 3.65 5 Z" stroke="#7c7c7c" stroke-width="1" fill="none"/>
		<rect x="6" y="3" width="12" height="3" stroke="#7c7c7c" stroke-width="1" fill="none"/>
		<path d="M 18 10.9075 L 18 20.0925 C 18 20.5937 17.1941 21 16.2 21 L 7.8 21 C 6.8059 21 6 20.5937 6 20.0925 L 6 10.9075 C 6 10.4063 6.8059 10 7.8 10 L 16.2 10 C 17.1941 10 18 10.4063 18 10.9075 Z" stroke="#7c7c7c" stroke-width="1" fill="none"/>
	</g>
</svg>