<?xml version="1.0" standalone="no"?>
<!-- Generator: Adobe Fireworks 10, Export SVG Extension by Aaron Beall (http://fireworks.abeall.com) . Version: 0.6.1  -->
<!DOCTYPE svg PUBLIC "-//W3C//DTD SVG 1.1//EN" "http://www.w3.org/Graphics/SVG/1.1/DTD/svg11.dtd">
<svg id="search.fw-Page%201" viewBox="0 0 24 24" version="1.1"
	xmlns="http://www.w3.org/2000/svg" xmlns:xlink="http://www.w3.org/1999/xlink" xml:space="preserve"
	x="0px" y="0px" width="24px" height="24px"
>
	<g id="Layer%201">
		<path d="M 2.35 2.5 L 22.65 2.5 C 23.3955 2.5 24 3.1044 24 3.85 L 24 19.15 C 24 19.8956 23.3955 20.5 22.65 20.5 L 2.35 20.5 C 1.6044 20.5 1 19.8956 1 19.15 L 1 3.85 C 1 3.1044 1.6044 2.5 2.35 2.5 Z" stroke="#8b8b8b" stroke-width="1" fill="#ffffff"/>
		<rect x="4" y="12" width="3" height="3" stroke="#8b8b8b" stroke-width="1" fill="#ffffff"/>
		<rect x="8" y="10" width="3" height="5" stroke="#8b8b8b" stroke-width="1" fill="#ffffff"/>
		<rect x="12" y="7" width="3" height="8" stroke="#8b8b8b" stroke-width="1" fill="#ffffff"/>
		<path id="Line" d="M 17.5 7.5 L 21.5 7.5 " stroke="#8b8b8b" stroke-width="1" fill="none"/>
		<path id="Line2" d="M 17.5 9.5 L 21.5 9.5 " stroke="#8b8b8b" stroke-width="1" fill="none"/>
		<path id="Line3" d="M 17.5 11.5 L 21.5 11.5 " stroke="#8b8b8b" stroke-width="1" fill="none"/>
		<path id="Line4" d="M 17.5 13.5 L 21.5 13.5 " stroke="#8b8b8b" stroke-width="1" fill="none"/>
	</g>
</svg>