<?xml version="1.0" standalone="no"?>
<!-- Generator: Adobe Fireworks 10, Export SVG Extension by Aaron Beall (http://fireworks.abeall.com) . Version: 0.6.1  -->
<!DOCTYPE svg PUBLIC "-//W3C//DTD SVG 1.1//EN" "http://www.w3.org/Graphics/SVG/1.1/DTD/svg11.dtd">
<svg id="settings.fw-Page%201" viewBox="0 0 24 24" version="1.1"
	xmlns="http://www.w3.org/2000/svg" xmlns:xlink="http://www.w3.org/1999/xlink" xml:space="preserve"
	x="0px" y="0px" width="24px" height="24px"
>
	<g id="Layer%201">
		<g>
			<path d="M 10 2 L 10 4.15 C 9.0368 4.3463 8.1408 4.7285 7.35 5.255 L 6 4 L 4 6 L 5.33 7.235 C 4.5802 8.3175 4.1067 9.6067 4.015 11 L 2 11 L 2 14 L 4.425 14 C 4.6482 14.6314 4.9553 15.224 5.33 15.765 L 4 17 L 6 19 L 7.35 17.745 C 8.1408 18.2715 9.0367 18.6536 10 18.85 L 10 21 L 13 21 L 13 18.85 C 14.1985 18.6061 15.2933 18.0754 16.21 17.335 L 18 19 L 20 17 L 18.04 15.18 C 18.2512 14.8057 18.4302 14.4111 18.575 14 L 21 14 L 21 11 L 18.985 11 C 18.9089 9.8499 18.5709 8.7698 18.035 7.82 L 20 6 L 18 4 L 16.21 5.665 C 15.2933 4.9245 14.1985 4.3939 13 4.15 L 13 2 L 10 2 Z" stroke="#8b8b8b" stroke-width="1" fill="none"/>
			<path id="Ellipse" d="M 8 11.5 C 8 9.567 9.567 8 11.5 8 C 13.433 8 15 9.567 15 11.5 C 15 13.433 13.433 15 11.5 15 C 9.567 15 8 13.433 8 11.5 Z" stroke="#8b8b8b" stroke-width="1" fill="none"/>
		</g>
	</g>
</svg>