<?xml version="1.0" encoding="utf-8"?>
<!-- Generator: Adobe Illustrator 19.2.1, SVG Export Plug-In . SVG Version: 6.00 Build 0)  -->
<svg version="1.1" id="Layer_1" xmlns="http://www.w3.org/2000/svg" xmlns:xlink="http://www.w3.org/1999/xlink" x="0px" y="0px"
	 viewBox="0 0 111.3 111.9" style="enable-background:new 0 0 111.3 111.9;" xml:space="preserve">
<style type="text/css">
	.st0{fill:none;stroke:#8C8C8C;stroke-width:3;stroke-linecap:round;stroke-linejoin:round;stroke-miterlimit:10;}
	.st1{fill:none;stroke:#8B8B8B;stroke-width:3;stroke-linecap:round;stroke-linejoin:round;stroke-miterlimit:10;}
</style>
<g>
	<path class="st0" d="M70.7,27.1v55.7c0,1.8-2,3.4-4.4,3.4H30.6c-2.4,0-4.4-1.6-4.4-3.4V27.1c0-1.9,2-3.4,4.4-3.4h35.7
		C68.7,23.7,70.7,25.2,70.7,27.1z"/>
	<line class="st0" x1="25.8" y1="31.1" x2="71.7" y2="31.1"/>
	<line class="st0" x1="25.8" y1="72.8" x2="71.7" y2="72.8"/>
	<line class="st0" x1="45.4" y1="78.7" x2="54.3" y2="78.7"/>
	<g>
		<path class="st1" d="M82.6,47.5c0,0,8.5,6.3,0,14.9"/>
		<path class="st1" d="M88.6,38.6c0,0,20.1,13.9,0,32.8"/>
	</g>
</g>
</svg>
