<?xml version="1.0" encoding="utf-8"?>
<!-- Generator: Adobe Illustrator 19.2.1, SVG Export Plug-In . SVG Version: 6.00 Build 0)  -->
<svg version="1.1" id="Layer_1" xmlns="http://www.w3.org/2000/svg" xmlns:xlink="http://www.w3.org/1999/xlink" x="0px" y="0px"
	 viewBox="0 0 111.3 111.9" style="enable-background:new 0 0 111.3 111.9;" xml:space="preserve">
<style type="text/css">
	.st0{fill:none;stroke:#8E8E8E;stroke-width:3;stroke-linecap:round;stroke-linejoin:round;stroke-miterlimit:10;}
</style>
<g>
	<path class="st0" d="M32.7,27.2h46c3.2,0,5.8,2.6,5.8,5.8v46c0,3.2-2.6,5.8-5.8,5.8h-46c-3.2,0-5.8-2.6-5.8-5.8V33
		C26.9,29.8,29.5,27.2,32.7,27.2z"/>
	<line class="st0" x1="39.2" y1="31.3" x2="39.2" y2="83.5"/>
	<line class="st0" x1="50.2" y1="31.3" x2="50.2" y2="83.5"/>
	<line class="st0" x1="61.1" y1="31.3" x2="61.1" y2="83.5"/>
	<line class="st0" x1="72.1" y1="31.3" x2="72.1" y2="83.5"/>
	<line class="st0" x1="31" y1="39.5" x2="83" y2="39.5"/>
	<line class="st0" x1="31" y1="50.5" x2="83" y2="50.5"/>
	<line class="st0" x1="31" y1="61.4" x2="83" y2="61.4"/>
	<line class="st0" x1="31" y1="72.4" x2="83" y2="72.4"/>
</g>
</svg>
