<?xml version="1.0" encoding="utf-8"?>
<!-- Generator: Adobe Illustrator 19.2.1, SVG Export Plug-In . SVG Version: 6.00 Build 0)  -->
<svg version="1.1" id="Layer_1" xmlns="http://www.w3.org/2000/svg" xmlns:xlink="http://www.w3.org/1999/xlink" x="0px" y="0px"
	 viewBox="0 0 111.3 111.9" style="enable-background:new 0 0 111.3 111.9;" xml:space="preserve">
<style type="text/css">
	.st0{fill:none;stroke:#8E8E8E;stroke-width:3;stroke-linecap:round;stroke-linejoin:round;stroke-miterlimit:10;}
</style>
<g>
	<path class="st0" d="M60.3,90.4c0,0,15.6,1.2,18.7,0c3.1-1.2,12.1-6.2,12.4-12.4c0.4-6.2,0-21.7,0-21.7s-0.4-7.4-6.2-7.8
		s-10.9,0-10.9,0s-5.1-1.9-3.1-6.2c1.9-4.3,2.3-11.3,1.6-15.5C72,22.5,69.7,19,66.6,19c-3.1,0-7.8,3.5-7.8,6.2s0.8,18.6-6.2,20.2
		c-7,1.5-12.5,6.2-12.5,6.2s-1.6-3.1-6.2-3.1c-4.7,0-13.6-2.7-14,6.2c-0.4,8.9,0,26.4,0,26.4s2.7,6.2,9.3,6.2s10.9-1.9,10.9-6.2
		C40.1,76.8,60.3,90.4,60.3,90.4z"/>
	<line class="st0" x1="40.9" y1="81.8" x2="40.9" y2="50.8"/>
</g>
</svg>
