<?xml version="1.0" encoding="utf-8"?>
<!-- Generator: Adobe Illustrator 19.2.1, SVG Export Plug-In . SVG Version: 6.00 Build 0)  -->
<svg version="1.1" id="Layer_1" xmlns="http://www.w3.org/2000/svg" xmlns:xlink="http://www.w3.org/1999/xlink" x="0px" y="0px"
	 viewBox="0 0 111.3 111.9" style="enable-background:new 0 0 111.3 111.9;" xml:space="preserve">
<style type="text/css">
	.st0{fill:none;stroke:#8C8C8C;stroke-width:3;stroke-linecap:round;stroke-linejoin:round;stroke-miterlimit:10;}
</style>
<g>
	<path class="st0" d="M30.1,35.3h51.2c1.9,0,3.5,2,3.5,4.5v35.6c0,2.5-1.6,4.5-3.5,4.5H30.1c-1.9,0-3.5-2-3.5-4.5V39.8
		C26.6,37.3,28.2,35.3,30.1,35.3z"/>
	<line class="st0" x1="38.6" y1="35.3" x2="38.6" y2="25"/>
	<line class="st0" x1="55.7" y1="35.3" x2="55.7" y2="25"/>
	<line class="st0" x1="72.9" y1="35.3" x2="72.9" y2="25"/>
	<line class="st0" x1="41.9" y1="49" x2="70.7" y2="49"/>
	<line class="st0" x1="41.9" y1="55.9" x2="70.7" y2="55.9"/>
	<line class="st0" x1="41.9" y1="62.7" x2="70.7" y2="62.7"/>
	<line class="st0" x1="41.9" y1="69.6" x2="70.7" y2="69.6"/>
</g>
</svg>
