<?xml version="1.0" encoding="utf-8"?>
<!-- Generator: Adobe Illustrator 19.2.1, SVG Export Plug-In . SVG Version: 6.00 Build 0)  -->
<svg version="1.1" id="Layer_1" xmlns="http://www.w3.org/2000/svg" xmlns:xlink="http://www.w3.org/1999/xlink" x="0px" y="0px"
	 viewBox="0 0 111.3 111.9" style="enable-background:new 0 0 111.3 111.9;" xml:space="preserve">
<style type="text/css">
	.st0{fill:none;stroke:#8C8C8C;stroke-width:3;stroke-linecap:round;stroke-linejoin:round;stroke-miterlimit:10;}
	.st1{fill:none;stroke:#8B8B8B;stroke-width:3;stroke-linecap:round;stroke-linejoin:round;stroke-miterlimit:10;}
</style>
<g>
	<path class="st0" d="M69.5,25.6v59c0,1.9-2.1,3.6-4.7,3.6H27c-2.6,0-4.7-1.7-4.7-3.6v-59c0-2,2.1-3.6,4.7-3.6h37.8
		C67.4,22,69.5,23.7,69.5,25.6z"/>
	<line class="st0" x1="21" y1="29.9" x2="70.5" y2="29.9"/>
	<line class="st0" x1="21" y1="74" x2="70.5" y2="74"/>
	<line class="st0" x1="42.7" y1="80.3" x2="52.2" y2="80.3"/>
	<g>
		<path class="st1" d="M82.1,47.2c0,0,9,6.7,0,15.7"/>
		<path class="st1" d="M88.3,37.8c0,0,21.2,14.7,0,34.7"/>
	</g>
</g>
</svg>
