<?xml version="1.0" encoding="utf-8"?>
<!-- Generator: Adobe Illustrator 19.2.1, SVG Export Plug-In . SVG Version: 6.00 Build 0)  -->
<svg version="1.1" id="Layer_1" xmlns="http://www.w3.org/2000/svg" xmlns:xlink="http://www.w3.org/1999/xlink" x="0px" y="0px"
	 viewBox="0 0 111.3 111.9" style="enable-background:new 0 0 111.3 111.9;" xml:space="preserve">
<style type="text/css">
	.st0{fill:none;stroke:#4E89D1;stroke-width:3;stroke-linecap:round;stroke-linejoin:round;stroke-miterlimit:10;}
	.st1{fill:#5991D5;}
</style>
<g>
	<path class="st0" d="M25.5,16.3h60.3c4.2,0,7.5,3.4,7.5,7.5v60.3c0,4.2-3.4,7.5-7.5,7.5H25.5c-4.2,0-7.5-3.4-7.5-7.5V23.8
		C18,19.7,21.4,16.3,25.5,16.3z"/>
	<path class="st1" d="M44.7,69.4H46l7.9-28.8H54l1.7,6l1.7-6h0.1l8,28.8h1.3h3.4l9.6-33.8h-3.4h-1.2l-7.2,27h-0.1l-1.7-6.1l-1.6,6.1
		h-0.1l-7.7-27.4h-1.7l-7.7,27.4h-0.1l-1.6-6.1L44,62.6h-0.1l-7.2-27.4h-1.2h-3.4l9.6,34.2L44.7,69.4L44.7,69.4z M46,69.4h3.4
		l6.3-22.8l-1.7-6h-0.1L46,69.4z M62,69.4h3.4l-8-28.8h-0.1l-1.7,6L62,69.4z M71.6,35.6L66,56.5l1.7,6.1h0.1l7.2-27H71.6z
		 M65.9,56.5l-6-21.4h-3.4l7.7,27.4h0.1L65.9,56.5z M51.4,35.1l-6,21.3l1.6,6.1h0.1l7.7-27.4H51.4z M45.4,56.5l-5.6-21.3h-3.4
		l7.2,27.4h0.1L45.4,56.5z"/>
</g>
</svg>
