<?xml version="1.0" encoding="utf-8"?>
<!-- Generator: Adobe Illustrator 19.2.1, SVG Export Plug-In . SVG Version: 6.00 Build 0)  -->
<svg version="1.1" id="history_x5F_new.fw-Page_x25_201"
	 xmlns="http://www.w3.org/2000/svg" xmlns:xlink="http://www.w3.org/1999/xlink" x="0px" y="0px" viewBox="0 0 24 24"
	 style="enable-background:new 0 0 24 24;" xml:space="preserve">
<style type="text/css">
	.st0{fill:none;}
	.st1{fill:none;stroke:#333333;stroke-width:0.7;}
	.st2{fill:none;stroke:#333333;stroke-width:0.7;stroke-linecap:round;stroke-linejoin:round;stroke-miterlimit:10;}
</style>
<path class="st0" d="M6.5,11.1L6.5,11.1L6.5,11.1L6.5,11.1z"/>
<path class="st0" d="M6.5,11.1L6.5,11.1L6.5,11.1L6.5,11.1z"/>
<g id="Layer_x25_201">
	<g>
		<path class="st1" d="M19.3,6.4"/>
		<path class="st1" d="M20,7"/>
		<path class="st1" d="M12.1,11.8"/>
	</g>
</g>
<path id="XMLID_50_" class="st2" d="M3.9,9.2c0-1.3,1.1-2.4,2.4-2.4s2.4,1.1,2.4,2.4c0,1.3-1.1,2.4-2.4,2.4S3.9,10.5,3.9,9.2z"/>
<circle id="XMLID_49_" class="st2" cx="17.7" cy="12" r="2.4"/>
<path id="XMLID_48_" class="st2" d="M9.6,15.8c0-1.3,1.1-2.4,2.4-2.4s2.4,1.1,2.4,2.4c0,1.3-1.1,2.4-2.4,2.4S9.6,17.1,9.6,15.8z"/>
<line id="XMLID_47_" class="st2" x1="6.3" y1="6.8" x2="6.3" y2="3.5"/>
<line id="XMLID_46_" class="st2" x1="17.7" y1="9.6" x2="17.7" y2="3.5"/>
<line id="XMLID_45_" class="st2" x1="12" y1="13.3" x2="12" y2="3.5"/>
<line id="XMLID_44_" class="st2" x1="6.3" y1="20.5" x2="6.3" y2="11.5"/>
<line id="XMLID_43_" class="st2" x1="17.7" y1="20.5" x2="17.7" y2="14.4"/>
<line id="XMLID_42_" class="st2" x1="12" y1="20.5" x2="12" y2="18.2"/>
</svg>
