<?xml version="1.0" encoding="utf-8"?>
<!-- Generator: Adobe Illustrator 19.2.1, SVG Export Plug-In . SVG Version: 6.00 Build 0)  -->
<svg version="1.1" id="history_x5F_new.fw-Page_x25_201"
	 xmlns="http://www.w3.org/2000/svg" xmlns:xlink="http://www.w3.org/1999/xlink" x="0px" y="0px" viewBox="0 0 24 24"
	 style="enable-background:new 0 0 24 24;" xml:space="preserve">
<style type="text/css">
	.st0{fill:none;stroke:#333333;stroke-width:0.7;stroke-linecap:round;stroke-miterlimit:10;}
	.st1{fill:none;stroke:#333333;stroke-width:0.7;stroke-linecap:square;stroke-miterlimit:10;}
	.st2{fill:none;stroke:#333333;stroke-miterlimit:10;}
</style>
<rect x="4.1" y="5.5" class="st0" width="15.8" height="13"/>
<line class="st1" x1="10.2" y1="8.3" x2="17.5" y2="8.3"/>
<line class="st1" x1="6.4" y1="8.3" x2="7.9" y2="8.3"/>
<line class="st1" x1="6.4" y1="11.6" x2="7.9" y2="11.6"/>
<line class="st1" x1="6.4" y1="14.9" x2="7.9" y2="14.9"/>
<line class="st1" x1="10.2" y1="11.6" x2="17.5" y2="11.6"/>
<line class="st1" x1="10.2" y1="14.9" x2="17.5" y2="14.9"/>
<path class="st2" d="M12,12L12,12L12,12L12,12z"/>
<path class="st2" d="M12,12L12,12L12,12L12,12z"/>
<path class="st2" d="M12,11.9L12,11.9L12,11.9L12,11.9z"/>
<path class="st2" d="M12,11.9L12,11.9L12,11.9L12,11.9z"/>
</svg>
