<?xml version="1.0" encoding="utf-8"?>
<!-- Generator: Adobe Illustrator 19.2.1, SVG Export Plug-In . SVG Version: 6.00 Build 0)  -->
<svg version="1.1" id="Layer_1" xmlns="http://www.w3.org/2000/svg" xmlns:xlink="http://www.w3.org/1999/xlink" x="0px" y="0px"
	 viewBox="0 0 111.3 111.9" style="enable-background:new 0 0 111.3 111.9;" xml:space="preserve">
<style type="text/css">
	.st0{fill:#333333;}
</style>
<g>
	<path class="st0" d="M42.3,30.3c3.2-3.2,7.9-6.1,14.4-6.1c8.2,0,15,5.1,15,13.3c0,13.3-14.1,14.9-14.5,21l-0.5,7.2h-2.9l-0.2-7.5
		v-0.2c0-7.1,14.1-8.5,14.1-20.3c0-6.3-5.4-10.1-11.4-10.1c-7.7,0-11.2,5-12.1,5c-0.4,0-0.7-0.2-1-0.5L42.3,30.3z M55.2,79.6
		c2.2,0,4.1,1.8,4.1,4.1c0,2.3-1.8,4-4.1,4c-2.3,0-4-1.8-4-4C51.2,81.5,53,79.6,55.2,79.6z"/>
</g>
</svg>
