<?xml version="1.0" encoding="utf-8"?>
<!-- Generator: Adobe Illustrator 19.2.1, SVG Export Plug-In . SVG Version: 6.00 Build 0)  -->
<svg version="1.1" id="Layer_1" xmlns="http://www.w3.org/2000/svg" xmlns:xlink="http://www.w3.org/1999/xlink" x="0px" y="0px"
	 viewBox="0 0 111.3 111.9" style="enable-background:new 0 0 111.3 111.9;" xml:space="preserve">
<style type="text/css">
	.st0{fill:none;stroke:#333333;stroke-width:3;stroke-linecap:round;stroke-linejoin:round;stroke-miterlimit:10;}
</style>
<g id="XMLID_2_">
	<path id="XMLID_10_" class="st0" d="M31,37.7h51.2c1.9,0,3.5,2,3.5,4.5v35.6c0,2.5-1.6,4.5-3.5,4.5H31c-1.9,0-3.5-2-3.5-4.5V42.1
		C27.5,39.7,29.1,37.7,31,37.7z"/>
	<line id="XMLID_9_" class="st0" x1="39.5" y1="36" x2="39.5" y2="25.7"/>
	<line id="XMLID_8_" class="st0" x1="56.6" y1="36" x2="56.6" y2="25.7"/>
	<line id="XMLID_7_" class="st0" x1="73.8" y1="36" x2="73.8" y2="25.7"/>
	<line id="XMLID_6_" class="st0" x1="42.9" y1="49.7" x2="71.6" y2="49.7"/>
	<line id="XMLID_5_" class="st0" x1="42.9" y1="56.5" x2="71.6" y2="56.5"/>
	<line id="XMLID_4_" class="st0" x1="42.9" y1="63.4" x2="71.6" y2="63.4"/>
	<line id="XMLID_3_" class="st0" x1="42.9" y1="70.2" x2="71.6" y2="70.2"/>
</g>
</svg>
