<?xml version="1.0" encoding="utf-8"?>
<!-- Generator: Adobe Illustrator 19.2.1, SVG Export Plug-In . SVG Version: 6.00 Build 0)  -->
<svg version="1.1" id="history_x5F_new.fw-Page_x25_201"
	 xmlns="http://www.w3.org/2000/svg" xmlns:xlink="http://www.w3.org/1999/xlink" x="0px" y="0px" viewBox="0 0 24 24"
	 style="enable-background:new 0 0 24 24;" xml:space="preserve">
<style type="text/css">
	.st0{fill:none;}
	.st1{fill:none;stroke:#333333;stroke-width:0.7;}
	.st2{fill:none;stroke:#333333;stroke-width:0.7;stroke-linecap:round;stroke-linejoin:round;stroke-miterlimit:10;}
</style>
<path class="st0" d="M6.5,11.1L6.5,11.1L6.5,11.1L6.5,11.1z"/>
<path class="st0" d="M6.5,11.1L6.5,11.1L6.5,11.1L6.5,11.1z"/>
<g id="Layer_x25_201">
	<g>
		<path class="st1" d="M19.3,6.4"/>
		<path class="st1" d="M20,7"/>
		<path class="st1" d="M12.1,11.8"/>
	</g>
</g>
<path id="XMLID_41_" class="st2" d="M12.7,18.3l6.9-6.7c0,0,2.1-3-0.5-5.6c-2.6-2.6-5.2-1.3-6-0.5l-8.9,8.8c0,0-1.5,2.2,0.5,4.2
	S8.9,19,9,19l8.8-8.6c0,0,1.5-1.2-0.4-3c-1.9-1.8-3.6,0.5-3.6,0.5l-5.7,5.6"/>
</svg>
