<?xml version="1.0" encoding="utf-8"?>
<!-- Generator: Adobe Illustrator 19.2.1, SVG Export Plug-In . SVG Version: 6.00 Build 0)  -->
<svg version="1.1" id="history_x5F_new.fw-Page_x25_201"
	 xmlns="http://www.w3.org/2000/svg" xmlns:xlink="http://www.w3.org/1999/xlink" x="0px" y="0px" viewBox="0 0 24 24"
	 style="enable-background:new 0 0 24 24;" xml:space="preserve">
<style type="text/css">
	.st0{fill:none;}
	.st1{fill:none;stroke:#333333;stroke-width:0.7;}
</style>
<path class="st0" d="M6.6,11.1L6.6,11.1L6.6,11.1L6.6,11.1z"/>
<path class="st0" d="M6.6,11.1L6.6,11.1L6.6,11.1L6.6,11.1z"/>
<g id="Layer_x25_201">
	<g>
		<path class="st1" d="M19.2,6.5"/>
		<path class="st1" d="M19.9,7.1"/>
		<path class="st1" d="M12.1,11.8"/>
	</g>
</g>
<g id="Layer_x25_201_1_">
	<g>
		<path class="st1" d="M4.7,5.7h14.5c0.7,0,1.3,0.6,1.3,1.3v10c0,0.7-0.6,1.3-1.3,1.3H4.7c-0.7,0-1.3-0.6-1.3-1.3V7
			C3.5,6.3,4.1,5.7,4.7,5.7z"/>
		<path class="st1" d="M3.9,6.1l8.1,6L20.1,6"/>
	</g>
</g>
</svg>
