<svg id="Layer_1" data-name="Layer 1" xmlns="http://www.w3.org/2000/svg" viewBox="0 0 240 240"><defs><style>.cls-1{fill:#383838;}.cls-2{fill:#333;}</style></defs><title>Artboard 1</title><line class="cls-1" x1="222.42" y1="34.98" x2="23.38" y2="36.34"/><line class="cls-1" x1="27.42" y1="65.31" x2="-171.58" y2="66.67"/><rect class="cls-1" x="77.01" y="51.62" width="121.14" height="3.28"/><rect class="cls-1" x="42.17" y="86.77" width="3.28" height="108.34"/><path class="cls-1" d="M162.76,140.85h0a4,4,0,0,1,0-.49V136.6c0-.13,0-.25,0-.37v-.4s0,0,0-.07v-32h19.44L160.6,81.58,139,103.72h19.44v38.79c0,9.8-10.7,17.78-23.86,17.78-1.2,0-2.17.72-2.17,1.62s1,1.62,2.17,1.62c15.55,0,28.2-9.42,28.2-21v-.85A4.76,4.76,0,0,1,162.76,140.85ZM147.5,100.49,160.6,87.08l13.09,13.41Z"/><path class="cls-1" d="M162.77,140.84a3.5,3.5,0,0,1,0-.49V136.6a2.93,2.93,0,0,1,.05-.52,4.49,4.49,0,0,1,0-.89,1.55,1.55,0,0,0-1.3-.85,1.92,1.92,0,0,0-1.67,2.1c0,12.73-8.24,23.08-18.38,23.08H101.37V140.71L78.48,161.61l22.89,20.91V163.71h40.09c10.58,0,19.39-9.56,21.3-22.16A4.74,4.74,0,0,1,162.77,140.84ZM98,174.28,84.16,161.61,98,148.95Z"/><path class="cls-1" d="M85,162.69c-.06-1.27-.08-2.7.79-3.63a2.9,2.9,0,0,1,4,0,4.47,4.47,0,0,1,1.14,4.06,3.34,3.34,0,0,1-1.45,2.37,1.78,1.78,0,0,1-2.46-.63,2,2,0,0,1,0-1.3,2.69,2.69,0,0,1,2.18-2,2,2,0,0,1,2.19,1.75,1.61,1.61,0,0,1-2.1,1.57,2.22,2.22,0,0,1-.88-.84,5.31,5.31,0,0,1,3.87-8.23,3.54,3.54,0,0,1,2.43.55A4.32,4.32,0,0,1,96,158.33a22.83,22.83,0,0,1,1.25,7c.08,1.07-.11,2.49-1.15,2.67s-1.7-1.14-1.86-2.2a16,16,0,0,1,0-4.72A18.43,18.43,0,0,1,95.28,169a1.64,1.64,0,0,1-.21.79,1.3,1.3,0,0,1-.8.49,3.34,3.34,0,0,1-3.16-1.12,5.87,5.87,0,0,1-1.32-3.22c1.42-.37,2.82.55,4,1.43A5.92,5.92,0,0,1,96,169.78c.65,1.74-.24,4.15,1.24,5.26A30.35,30.35,0,0,1,95,164c0-2.52.17-5.27-1.31-7.3a2.94,2.94,0,0,1-.84-1.63,2.28,2.28,0,0,1,.55-1.22l3.39-4.72a13.15,13.15,0,0,1-4.18,13.45c-.48-.62-.09-1.5.22-2.22s.41-1.78-.31-2.09"/><path class="cls-2" d="M87.48,162.69q6.76-5.62,6.85-.55a19.47,19.47,0,0,1,.38,3.24c2.11.57,1.88-3.35,2-4.25l-4.91.66a14.12,14.12,0,0,1,1,4.34c0,2.85-.38-.18-.52-.87l-2.41,3.16c4.47,0,3.55,5.67,5.69,8.39,1.53,1.94,5-.16,4.18-2.43-1.83-4.79-1.75-9.24-2.33-14.22a33.76,33.76,0,0,0-1.16-4.09c-.46-1.92-.64.36-.08-1.77.3-1.13,2.2-3.06,2.83-3.94l-4.57-.6a11,11,0,0,1-3.53,11l4.18,1.1c-.37-2.12,1-2.76-.35-4.91-1.67-2.74-6-.23-4.32,2.52a26.07,26.07,0,0,0-.16,3.71c.34,2,2.91,2.27,4.18,1.1a16.08,16.08,0,0,0,4.82-15.88c-.51-2.28-3.41-2.22-4.57-.6-1.29,1.8-3.91,4.26-4.19,6.54-.24,1.91,1,3.31,1.55,5,.83,2.6.44,5.42.78,8.13a34.76,34.76,0,0,0,2.1,8.16L99,173.28c-.67-.86-.2-3.07-.6-4.16a7.1,7.1,0,0,0-1.59-2.45,9.62,9.62,0,0,0-7-3.25,2.53,2.53,0,0,0-2.41,3.16c.7,3.49,3.76,7.49,7.85,6,4.47-1.67,2.39-8.87,1.34-12.09a2.51,2.51,0,0,0-4.91.66c-.24,2.56-.56,6.52,1.7,8.43a3.72,3.72,0,0,0,5.23-.28c3-3.3.76-12.78-2.73-15-4.47-2.89-10.28,1.16-10.85,5.92-.49,4,4.16,10.73,7.92,5.68,2.9-3.89-2.27-8.3-6.07-6-3.61,2.14-3.23,8.51,1.62,8.49,5.34,0,6.26-7.88,3-10.94-4.55-4.27-9.07.55-9,5.36,0,3.22,5,3.22,5,0Z"/><path class="cls-1" d="M147.68,99.24a11.35,11.35,0,0,0,8.19-5.35c1.19-2,1.77-4.33,3.18-6.15.4-.51,1-1,1.62-.88a1.94,1.94,0,0,1,.81.5l10.12,8.83c.91.79,1.89,1.72,1.94,2.93-5.37,1.21-10.54-3.18-16-3a3.6,3.6,0,0,0-1.23.21,4.43,4.43,0,0,0-1.24.87l-3.1,2.73a30.91,30.91,0,0,0,13.94-1.69,2.21,2.21,0,0,0,.75-.4,2,2,0,0,0,.29-2.07,7.39,7.39,0,0,0-6.22-5.19,5.93,5.93,0,0,1-.69,3.17,4.07,4.07,0,0,0,3.76.47"/><path class="cls-2" d="M148.35,101.65a14.4,14.4,0,0,0,10.34-7.72c.46-.88.71-2.57,1.46-3.16,1.09-.86,1.26-.05,2.46.87,2.25,1.74,7.74,5.39,8.53,8.13l1.75-3.08c-4.83.66-9.14-2.71-13.88-3-4-.27-6,2-8.82,4.48-1.76,1.55-.22,4.11,1.77,4.27,4.26.34,15.33.86,17.27-4.28,1.82-4.82-3.79-9.14-7.85-10a2.54,2.54,0,0,0-3.16,2.41l-.6,2.51a2.5,2.5,0,0,0,1.15,2.82,7.94,7.94,0,0,0,5.69.72c3.15-.64,1.82-5.46-1.33-4.82l-1.83-.22,1.15,2.82a10.52,10.52,0,0,0,.78-3.84L160,93q3.12.05,3.5,3.4a30.85,30.85,0,0,1-3.44.82,32.19,32.19,0,0,1-8.15.22l1.77,4.27c4.22-3.72,7.28-2.49,11.92-1a18.67,18.67,0,0,0,8.58.87A2.52,2.52,0,0,0,176,98.45c-1-3.51-4.28-5.51-6.92-7.82-2.11-1.84-5.08-5.8-8-6.23-2.28-.33-3.82,1.48-4.87,3.23-2.58,4.33-3.42,8.09-9.12,9.2-3.16.61-1.82,5.43,1.33,4.82Z"/><path class="cls-1" d="M169.24,95.77A3.76,3.76,0,0,1,169,98a.91.91,0,0,1-.11-1.51"/><path class="cls-2" d="M167.79,96.15a3,3,0,0,1-.16,1.72l2.5-.67c-.16-.09,0,.08-.1-.08.06.13,0,0,0-.1s0-.06,0-.1-.12.2-.18.24c.48-.37.75-1.06.16-1.47a1.92,1.92,0,0,0-2.08.18,1.77,1.77,0,0,0,0,3,1.9,1.9,0,0,0,2.5-.67,4.86,4.86,0,0,0,.3-2.81c-.13-.69-1.19-.74-1.71-.59s-1.32.64-1.19,1.36Z"/><rect class="cls-1" x="61.33" y="86.77" width="3.28" height="109.98"/><rect class="cls-1" x="77.01" y="69.03" width="121.14" height="3.28"/><rect class="cls-1" x="76.84" y="53.62" width="3.28" height="17.7"/><rect class="cls-1" x="194.87" y="53.91" width="3.28" height="17.4"/><rect class="cls-1" x="42.17" y="193.46" width="21.98" height="3.28"/><rect class="cls-1" x="42.17" y="86.08" width="21.98" height="3.28"/></svg>