<?xml version="1.0" encoding="utf-8"?>
<!-- Generator: Adobe Illustrator 19.2.1, SVG Export Plug-In . SVG Version: 6.00 Build 0)  -->
<svg version="1.1" id="history_x5F_new.fw-Page_x25_201"
	 xmlns="http://www.w3.org/2000/svg" xmlns:xlink="http://www.w3.org/1999/xlink" x="0px" y="0px" viewBox="0 0 24 24"
	 style="enable-background:new 0 0 24 24;" xml:space="preserve">
<style type="text/css">
	.st0{fill:none;}
	.st1{fill:none;stroke:#333333;stroke-width:0.7;}
	.st2{fill:none;stroke:#333333;stroke-width:0.7;}
</style>
<path class="st0" d="M-17.1,14L-17.1,14L-17.1,14L-17.1,14z"/>
<path class="st0" d="M-17.1,14L-17.1,14L-17.1,14L-17.1,14z"/>
<g id="Layer_x25_201">
	<g>
		<path class="st1" d="M-2.7,8.8"/>
		<path class="st1" d="M-2,9.4"/>
		<path class="st1" d="M-10.8,14.8"/>
	</g>
</g>
<g>
	<path class="st2" d="M21.3,12.8l-2.5,0.4c-0.1,0.5-0.7,2.1-1,2.5l1.5,2.1L18,19l-2.1-1.5c-0.4,0.3-2.1,0.9-2.6,1l-0.5,2.7h-1.8
		l-0.4-2.5c-0.5-0.1-2.2-0.7-2.6-1L6,19.2L4.8,18l1.5-2.1c-0.3-0.4-0.9-2.1-1-2.6l-2.5-0.5v-1.8l2.5-0.4c0.2-0.5,0.8-2.2,1.1-2.6
		l-1.5-2l1.2-1.2l2.1,1.5c0.4-0.3,2.1-0.9,2.6-1l0.4-2.6h1.8l0.4,2.5c0.5,0.1,2.2,0.7,2.6,1L18,4.8L19.2,6l-1.5,2.1
		c0.3,0.4,0.9,2.1,1,2.6l2.5,0.4V12.8z"/>
	<path class="st2" d="M12,14.5c-1.4,0-2.5-1.1-2.5-2.5s1.1-2.5,2.5-2.5s2.5,1.1,2.5,2.5S13.4,14.5,12,14.5z"/>
</g>
</svg>
