<?xml version="1.0" encoding="utf-8"?>
<!-- Generator: Adobe Illustrator 19.2.1, SVG Export Plug-In . SVG Version: 6.00 Build 0)  -->
<svg version="1.1" id="history_x5F_new.fw-Page_x25_201"
	 xmlns="http://www.w3.org/2000/svg" xmlns:xlink="http://www.w3.org/1999/xlink" x="0px" y="0px" viewBox="0 0 24 24"
	 style="enable-background:new 0 0 24 24;" xml:space="preserve">
<style type="text/css">
	.st0{fill:none;}
	.st1{fill:#333333;}
	.st2{fill:none;stroke:#333333;stroke-width:0.6;stroke-miterlimit:10;}
	.st3{fill:none;stroke:#333333;stroke-width:0.7;stroke-miterlimit:10;}
</style>
<g>
	<path class="st0" d="M7.1,10.9L7.1,10.9L7.1,10.9L7.1,10.9z"/>
	<path class="st0" d="M7.1,10.9L7.1,10.9L7.1,10.9L7.1,10.9z"/>
	<circle class="st1" cx="6.5" cy="9.5" r="0.6"/>
	<line class="st2" x1="6.3" y1="12.4" x2="17.8" y2="12.4"/>
	<path class="st1" d="M18.9,16.2h-3.5v-3.6H8.7v3.6H5.1c-0.7,0-1.4-0.6-1.4-1.4V8.6c0-0.7,0.6-1.4,1.4-1.4h13.8
		c0.7,0,1.3,0.6,1.3,1.4v6.3C20.2,15.6,19.7,16.2,18.9,16.2z M16,15.6h2.9c0.4,0,0.7-0.3,0.7-0.7V8.6c0-0.4-0.3-0.7-0.7-0.7H5.1
		c-0.4,0-0.7,0.3-0.7,0.7v6.3c0,0.4,0.3,0.7,0.7,0.7H8v-3.4h8V15.6z"/>
	<path class="st1" d="M16,20.1H8v-8h8V20.1z M8.7,19.6h6.7v-6.9H8.7V19.6z"/>
	<rect x="8.3" y="3.9" class="st3" width="7.6" height="3.7"/>
	<line class="st3" x1="15.1" y1="9.5" x2="17.9" y2="9.5"/>
</g>
</svg>
