<?xml version="1.0" encoding="utf-8"?>
<!-- Generator: Adobe Illustrator 19.2.1, SVG Export Plug-In . SVG Version: 6.00 Build 0)  -->
<svg version="1.1" id="history_x5F_new.fw-Page_x25_201"
	 xmlns="http://www.w3.org/2000/svg" xmlns:xlink="http://www.w3.org/1999/xlink" x="0px" y="0px" viewBox="0 0 24 24"
	 style="enable-background:new 0 0 24 24;" xml:space="preserve">
<style type="text/css">
	.st0{fill:none;}
	.st1{fill:none;stroke:#333333;stroke-width:0.7;}
	.st2{fill:none;stroke:#333333;stroke-width:0.7;stroke-miterlimit:10;}
</style>
<path class="st0" d="M6.5,11.1L6.5,11.1L6.5,11.1L6.5,11.1z"/>
<path class="st0" d="M6.5,11.1L6.5,11.1L6.5,11.1L6.5,11.1z"/>
<g id="Layer_x25_201">
	<g>
		<path class="st1" d="M19.3,6.4"/>
		<path class="st1" d="M20,7"/>
		<path class="st1" d="M12.1,11.8"/>
	</g>
</g>
<g>
	<path class="st2" d="M16.7,13.1l-1.8-0.7l-0.7-0.9c0.8-1.1,1.2-2.7,1.2-4.3c0-2.4-1.3-3.9-3.4-3.9S8.6,4.9,8.6,7.2
		c0,1.6,0.4,3.2,1.2,4.3c0,0,0,0,0,0l-0.7,0.9l-1.8,0.7c-0.3,0.1-3.4,1.2-3.4,6.7c0,0.2,0.2,0.3,0.3,0.3c0,0,1.6,0,2.3,0v0.2
		c0,0.2,0.2,0.3,0.3,0.3h10.2c0.2,0,0.3-0.2,0.3-0.3v-0.2c0.7,0,2.3,0,2.3,0c0.2,0,0.3-0.2,0.3-0.3C20.1,14.2,17,13.2,16.7,13.1z"/>
	<line class="st2" x1="6.5" y1="20.2" x2="6.5" y2="16.9"/>
	<line class="st2" x1="17.5" y1="20.2" x2="17.5" y2="17"/>
</g>
</svg>
