<?xml version="1.0" encoding="utf-8"?>
<!-- Generator: Adobe Illustrator 19.2.1, SVG Export Plug-In . SVG Version: 6.00 Build 0)  -->
<svg version="1.1" id="Layer_1" xmlns="http://www.w3.org/2000/svg" xmlns:xlink="http://www.w3.org/1999/xlink" x="0px" y="0px"
	 viewBox="0 0 114.7 31.6" style="enable-background:new 0 0 114.7 31.6;" xml:space="preserve">
<style type="text/css">
	.st0{fill:#F18240;}
	.st1{clip-path:url(#SVGID_2_);fill:#FFFFFF;}
	.st2{clip-path:url(#SVGID_4_);fill:#FFFFFF;}
</style>
<rect class="st0" width="114.7" height="31.6"/>
<g>
	<g>
		<defs>
			<rect id="SVGID_1_" x="8.2" y="7.5" width="97" height="16.9"/>
		</defs>
		<clipPath id="SVGID_2_">
			<use xlink:href="#SVGID_1_"  style="overflow:visible;"/>
		</clipPath>
		<path class="st1" d="M75.8,8.5c0-0.2-0.2-0.4-0.4-0.4h-2.9c-0.2,0-0.4,0.2-0.4,0.4v3.1C74.7,10.3,75.8,8.9,75.8,8.5"/>
		<path class="st1" d="M52.4,11.4c-0.1,0-0.4-0.1-0.6-0.2c-0.9-0.5-2.3-0.8-3.4-0.8c-3.1,0-4.7,1.8-4.7,5.4c0,3.6,1.5,5.4,4.5,5.4
			c1.3,0,2.7-0.4,3.7-0.9c0.2-0.1,0.4-0.2,0.5-0.2c0.2,0,0.3,0.2,0.3,0.5v1.6c0,0.5-0.1,0.7-0.5,0.8c-1.3,0.6-3,0.9-4.5,0.9
			c-4.8,0-7.6-2.9-7.6-7.9c0-4.9,3.1-8.2,7.8-8.2c1.1,0,2.4,0.2,3.4,0.5c1.3,0.3,1.5,0.5,1.5,1.1V11C52.7,11.2,52.6,11.4,52.4,11.4"
			/>
		<path class="st1" d="M56.7,9.4c1.4-1.2,2.8-1.6,5.3-1.6c4.7,0,7.4,2.9,7.4,8.2c0,2.9-0.8,5-2.4,6.4c-1.3,1.2-2.8,1.7-5.2,1.7
			c-2.4,0-3.8-0.5-5.1-1.7c-1.6-1.4-2.4-3.5-2.4-6.5C54.2,13,55.1,10.9,56.7,9.4 M61.9,21.4c2.4,0,3.8-2,3.8-5.5
			c0-3.5-1.5-5.6-3.8-5.6c-2.4,0-3.9,2-3.9,5.5C58,19.4,59.4,21.4,61.9,21.4"/>
		<path class="st1" d="M83.3,8.6c0.4-0.2,0.7-0.3,0.9-0.4c0.9-0.3,1.6-0.4,2.6-0.4c3.6,0,5.5,2,5.5,5.6v9.8c0,0.2-0.2,0.4-0.4,0.4
			H89c-0.2,0-0.4-0.2-0.4-0.4v-9.3c0-2.3-0.9-3.3-3.1-3.3c-2,0-3.1,0.9-3.1,2.5v10c0,0.2-0.2,0.4-0.4,0.4h-2.9
			c-0.2,0-0.4-0.2-0.4-0.4V8.5c0-0.2,0.2-0.4,0.4-0.4h2.5c0.4,0,0.5,0.1,0.5,0.4v0.3C82.7,8.8,82.8,8.8,83.3,8.6"/>
		<path class="st1" d="M102.4,14.9c1.8,1.1,2.7,2.5,2.7,4.3c0,2.8-2.2,4.6-5.7,4.6c-1,0-2-0.1-3-0.4c-0.3-0.1-0.7-0.2-1.1-0.3
			c-0.7-0.2-0.7-0.3-0.7-0.9v-1.7c0-0.4,0.1-0.6,0.3-0.6c0.2,0,0.4,0.1,0.6,0.2c1.4,0.7,2.4,1.1,3.8,1.1c1.4,0,2.1-0.5,2.1-1.5
			c0-0.8-0.3-1.1-1.7-2l-1.5-0.9c-1.5-0.9-2.1-1.4-2.6-2c-0.5-0.6-0.7-1.5-0.7-2.4c0-2.7,2-4.5,5.1-4.5c1,0,2.1,0.2,3.2,0.4
			c1.4,0.3,1.6,0.5,1.6,1.1v1.5c0,0.3-0.2,0.5-0.4,0.5c-0.1,0-0.3-0.1-0.6-0.2c-0.8-0.4-2.4-0.8-3.4-0.8c-1.2,0-1.9,0.5-1.9,1.3
			c0,0.5,0.3,1,0.7,1.3l0.7,0.4l0.7,0.5L102.4,14.9"/>
	</g>
	<g>
		<defs>
			<rect id="SVGID_3_" x="8.2" y="7.5" width="97" height="16.5"/>
		</defs>
		<clipPath id="SVGID_4_">
			<use xlink:href="#SVGID_3_"  style="overflow:visible;"/>
		</clipPath>
		<path class="st2" d="M72,12.7v10.4c0,0.2,0.2,0.4,0.4,0.4h2.9c0.2,0,0.4-0.2,0.4-0.4V11C73.9,12.3,72.2,12.7,72,12.7"/>
		<path class="st2" d="M8.2,22.8c0.3,0.4,2.5,1.2,10.1,1c7.6-0.2,12.6-0.6,15.9-0.4c3.3,0.2,2.3-0.7,2.2-0.8c0,0-1-0.8-2.2-1.7
			c-1.2-0.9-1.4-0.8-1.4-2.1c0-1.3-0.3-4.6-2.5-6.7c-1.1-1.2-0.9-1.1-0.9-1.4c0-0.5-2.1-4.8-11.2-2.6c-6.1,1.5-6.9,5-7,5.2
			c-0.1,0.3-2.1,1.8-1.7,8C9.5,21.3,7.9,22.4,8.2,22.8"/>
	</g>
</g>
</svg>
