<?xml version="1.0" encoding="utf-8"?>
<!-- Generator: Adobe Illustrator 19.2.1, SVG Export Plug-In . SVG Version: 6.00 Build 0)  -->
<svg version="1.1" id="Untitled-Page_x25_201" xmlns="http://www.w3.org/2000/svg" xmlns:xlink="http://www.w3.org/1999/xlink"
	 x="0px" y="0px" viewBox="0 0 24 24" style="enable-background:new 0 0 24 24;" xml:space="preserve">
<style type="text/css">
	.st0{fill:none;stroke:#333333;stroke-width:0.7;stroke-linecap:square;stroke-linejoin:round;stroke-miterlimit:22.9256;}
	.st1{fill:none;stroke:#333333;stroke-width:0.7;stroke-linejoin:round;stroke-miterlimit:22.9256;}
</style>
<g>
	<path class="st0" d="M7.8,17.9h8.5v-4.7c0-0.1-0.1-0.3-0.1-0.3l0,0c-0.1-0.1-0.2-0.1-0.3-0.1H8.2c-0.1,0-0.3,0.1-0.3,0.1l0,0
		c-0.1,0.1-0.1,0.2-0.1,0.3V17.9L7.8,17.9z M14.9,6.1h-6v3.4c0,0.1,0,0.1,0.1,0.2l0,0c0,0,0.1,0.1,0.2,0.1h5.5c0.1,0,0.1,0,0.2-0.1
		l0,0c0,0,0.1-0.1,0.1-0.2V6.1H14.9z M17.8,19.3H6.2c-0.4,0-0.7-0.3-0.7-0.7V5.4c0-0.4,0.3-0.7,0.7-0.7h9.7l0,0
		c0.2,0,0.4,0.1,0.5,0.2l2,2c0.1,0.1,0.2,0.3,0.2,0.5v11.2C18.6,19,18.2,19.3,17.8,19.3L17.8,19.3L17.8,19.3z"/>
	<line class="st1" x1="13.4" y1="7.1" x2="13.4" y2="8.6"/>
</g>
</svg>
